<mxfile host="app.diagrams.net" modified="2024-02-01T09:53:37.159Z" agent="Mozilla/5.0 (Macintosh; Intel Mac OS X 10_15_7) AppleWebKit/537.36 (KHTML, like Gecko) Chrome/120.0.0.0 Safari/537.36" etag="I09v6p9WamNpOUv1LjyS" version="23.1.0" type="github">
  <diagram name="第 1 页" id="ZSRBXFfeq9IYM28gAuJN">
    <mxGraphModel dx="1035" dy="668" grid="0" gridSize="10" guides="1" tooltips="1" connect="1" arrows="1" fold="1" page="1" pageScale="1" pageWidth="827" pageHeight="1169" math="0" shadow="0">
      <root>
        <mxCell id="0" />
        <mxCell id="1" parent="0" />
        <mxCell id="Y5Btx3sf2QLaELngchst-44" value="" style="rounded=0;whiteSpace=wrap;html=1;dashed=1;" vertex="1" parent="1">
          <mxGeometry x="176" y="664" width="475" height="286" as="geometry" />
        </mxCell>
        <mxCell id="Y5Btx3sf2QLaELngchst-5" style="edgeStyle=orthogonalEdgeStyle;rounded=0;orthogonalLoop=1;jettySize=auto;html=1;entryX=0.5;entryY=0;entryDx=0;entryDy=0;" edge="1" parent="1" source="Y5Btx3sf2QLaELngchst-1" target="Y5Btx3sf2QLaELngchst-2">
          <mxGeometry relative="1" as="geometry" />
        </mxCell>
        <mxCell id="Y5Btx3sf2QLaELngchst-1" value="检查pom.xml" style="rounded=1;whiteSpace=wrap;html=1;fillColor=#e1d5e7;strokeColor=#9673a6;" vertex="1" parent="1">
          <mxGeometry x="299" y="170" width="120" height="60" as="geometry" />
        </mxCell>
        <mxCell id="Y5Btx3sf2QLaELngchst-19" style="edgeStyle=orthogonalEdgeStyle;rounded=0;orthogonalLoop=1;jettySize=auto;html=1;entryX=0.5;entryY=0;entryDx=0;entryDy=0;" edge="1" parent="1" source="Y5Btx3sf2QLaELngchst-2" target="Y5Btx3sf2QLaELngchst-14">
          <mxGeometry relative="1" as="geometry" />
        </mxCell>
        <mxCell id="Y5Btx3sf2QLaELngchst-21" style="edgeStyle=orthogonalEdgeStyle;rounded=0;orthogonalLoop=1;jettySize=auto;html=1;" edge="1" parent="1" source="Y5Btx3sf2QLaELngchst-2" target="Y5Btx3sf2QLaELngchst-18">
          <mxGeometry relative="1" as="geometry" />
        </mxCell>
        <mxCell id="Y5Btx3sf2QLaELngchst-2" value="pom.xml是否配置&amp;lt;repository&amp;gt;/&amp;lt;repositories&amp;gt;标签" style="rhombus;whiteSpace=wrap;html=1;fillColor=#fff2cc;strokeColor=#d6b656;" vertex="1" parent="1">
          <mxGeometry x="205.5" y="285" width="307" height="110" as="geometry" />
        </mxCell>
        <mxCell id="Y5Btx3sf2QLaELngchst-11" value="Yes" style="text;html=1;strokeColor=none;fillColor=none;align=center;verticalAlign=middle;whiteSpace=wrap;rounded=0;" vertex="1" parent="1">
          <mxGeometry x="356" y="401" width="60" height="30" as="geometry" />
        </mxCell>
        <mxCell id="Y5Btx3sf2QLaELngchst-24" style="edgeStyle=orthogonalEdgeStyle;rounded=0;orthogonalLoop=1;jettySize=auto;html=1;entryX=0;entryY=0.5;entryDx=0;entryDy=0;exitX=-0.008;exitY=0.617;exitDx=0;exitDy=0;exitPerimeter=0;" edge="1" parent="1" source="Y5Btx3sf2QLaELngchst-13" target="Y5Btx3sf2QLaELngchst-1">
          <mxGeometry relative="1" as="geometry">
            <Array as="points">
              <mxPoint x="173" y="584" />
              <mxPoint x="173" y="200" />
            </Array>
          </mxGeometry>
        </mxCell>
        <mxCell id="Y5Btx3sf2QLaELngchst-13" value="整改pom.xml" style="rounded=1;whiteSpace=wrap;html=1;fillColor=#dae8fc;strokeColor=#6c8ebf;" vertex="1" parent="1">
          <mxGeometry x="299" y="547" width="120" height="60" as="geometry" />
        </mxCell>
        <mxCell id="Y5Btx3sf2QLaELngchst-20" style="edgeStyle=orthogonalEdgeStyle;rounded=0;orthogonalLoop=1;jettySize=auto;html=1;entryX=0.5;entryY=0;entryDx=0;entryDy=0;" edge="1" parent="1" source="Y5Btx3sf2QLaELngchst-14" target="Y5Btx3sf2QLaELngchst-13">
          <mxGeometry relative="1" as="geometry" />
        </mxCell>
        <mxCell id="Y5Btx3sf2QLaELngchst-14" value="使用新镜像" style="rounded=1;whiteSpace=wrap;html=1;fillColor=#dae8fc;strokeColor=#6c8ebf;" vertex="1" parent="1">
          <mxGeometry x="299" y="437" width="120" height="60" as="geometry" />
        </mxCell>
        <mxCell id="Y5Btx3sf2QLaELngchst-18" value="完成整改" style="rounded=1;whiteSpace=wrap;html=1;fillColor=#d5e8d4;strokeColor=#82b366;" vertex="1" parent="1">
          <mxGeometry x="570" y="545" width="120" height="60" as="geometry" />
        </mxCell>
        <mxCell id="Y5Btx3sf2QLaELngchst-22" value="No" style="text;html=1;strokeColor=none;fillColor=none;align=center;verticalAlign=middle;whiteSpace=wrap;rounded=0;" vertex="1" parent="1">
          <mxGeometry x="537" y="350" width="60" height="30" as="geometry" />
        </mxCell>
        <mxCell id="Y5Btx3sf2QLaELngchst-33" style="edgeStyle=orthogonalEdgeStyle;rounded=0;orthogonalLoop=1;jettySize=auto;html=1;entryX=0.5;entryY=0;entryDx=0;entryDy=0;" edge="1" parent="1" source="Y5Btx3sf2QLaELngchst-27" target="Y5Btx3sf2QLaELngchst-28">
          <mxGeometry relative="1" as="geometry" />
        </mxCell>
        <mxCell id="Y5Btx3sf2QLaELngchst-27" value="是否在代码中指定组件源(sec评估)" style="rhombus;whiteSpace=wrap;html=1;fillColor=#fff2cc;strokeColor=#d6b656;" vertex="1" parent="1">
          <mxGeometry x="228" y="667" width="307" height="110" as="geometry" />
        </mxCell>
        <mxCell id="Y5Btx3sf2QLaELngchst-34" style="edgeStyle=orthogonalEdgeStyle;rounded=0;orthogonalLoop=1;jettySize=auto;html=1;entryX=0.5;entryY=0;entryDx=0;entryDy=0;" edge="1" parent="1" source="Y5Btx3sf2QLaELngchst-28" target="Y5Btx3sf2QLaELngchst-30">
          <mxGeometry relative="1" as="geometry" />
        </mxCell>
        <mxCell id="Y5Btx3sf2QLaELngchst-28" value="是否走发布平台构建服务" style="rhombus;whiteSpace=wrap;html=1;fillColor=#dae8fc;strokeColor=#6c8ebf;" vertex="1" parent="1">
          <mxGeometry x="228" y="819" width="307" height="110" as="geometry" />
        </mxCell>
        <mxCell id="Y5Btx3sf2QLaELngchst-35" style="edgeStyle=orthogonalEdgeStyle;rounded=0;orthogonalLoop=1;jettySize=auto;html=1;entryX=0.5;entryY=0;entryDx=0;entryDy=0;" edge="1" parent="1" source="Y5Btx3sf2QLaELngchst-30" target="Y5Btx3sf2QLaELngchst-31">
          <mxGeometry relative="1" as="geometry" />
        </mxCell>
        <mxCell id="Y5Btx3sf2QLaELngchst-30" value="使用新镜像" style="rounded=1;whiteSpace=wrap;html=1;fillColor=#ffe6cc;strokeColor=#d79b00;dashed=1;" vertex="1" parent="1">
          <mxGeometry x="321.5" y="975" width="120" height="60" as="geometry" />
        </mxCell>
        <mxCell id="Y5Btx3sf2QLaELngchst-48" style="edgeStyle=orthogonalEdgeStyle;rounded=0;orthogonalLoop=1;jettySize=auto;html=1;entryX=0.5;entryY=0;entryDx=0;entryDy=0;" edge="1" parent="1" source="Y5Btx3sf2QLaELngchst-31" target="Y5Btx3sf2QLaELngchst-46">
          <mxGeometry relative="1" as="geometry" />
        </mxCell>
        <mxCell id="Y5Btx3sf2QLaELngchst-31" value="移除对应代码" style="rounded=1;whiteSpace=wrap;html=1;fillColor=#dae8fc;strokeColor=#6c8ebf;" vertex="1" parent="1">
          <mxGeometry x="321.5" y="1072" width="120" height="60" as="geometry" />
        </mxCell>
        <mxCell id="Y5Btx3sf2QLaELngchst-38" value="Yes" style="text;html=1;strokeColor=none;fillColor=none;align=center;verticalAlign=middle;whiteSpace=wrap;rounded=0;" vertex="1" parent="1">
          <mxGeometry x="392" y="780" width="60" height="30" as="geometry" />
        </mxCell>
        <mxCell id="Y5Btx3sf2QLaELngchst-40" value="Yes" style="text;html=1;strokeColor=none;fillColor=none;align=center;verticalAlign=middle;whiteSpace=wrap;rounded=0;" vertex="1" parent="1">
          <mxGeometry x="386" y="945" width="60" height="30" as="geometry" />
        </mxCell>
        <mxCell id="Y5Btx3sf2QLaELngchst-53" style="edgeStyle=orthogonalEdgeStyle;rounded=0;orthogonalLoop=1;jettySize=auto;html=1;entryX=1;entryY=0.5;entryDx=0;entryDy=0;exitX=0.5;exitY=1;exitDx=0;exitDy=0;" edge="1" parent="1" source="Y5Btx3sf2QLaELngchst-42" target="Y5Btx3sf2QLaELngchst-46">
          <mxGeometry relative="1" as="geometry" />
        </mxCell>
        <mxCell id="Y5Btx3sf2QLaELngchst-42" value="替换源地址" style="rounded=1;whiteSpace=wrap;html=1;fillColor=#dae8fc;strokeColor=#6c8ebf;" vertex="1" parent="1">
          <mxGeometry x="664" y="975" width="120" height="60" as="geometry" />
        </mxCell>
        <mxCell id="Y5Btx3sf2QLaELngchst-43" style="edgeStyle=orthogonalEdgeStyle;rounded=0;orthogonalLoop=1;jettySize=auto;html=1;entryX=0.575;entryY=0.017;entryDx=0;entryDy=0;entryPerimeter=0;" edge="1" parent="1" source="Y5Btx3sf2QLaELngchst-28" target="Y5Btx3sf2QLaELngchst-42">
          <mxGeometry relative="1" as="geometry" />
        </mxCell>
        <mxCell id="Y5Btx3sf2QLaELngchst-49" style="edgeStyle=orthogonalEdgeStyle;rounded=0;orthogonalLoop=1;jettySize=auto;html=1;" edge="1" parent="1" source="Y5Btx3sf2QLaELngchst-46" target="Y5Btx3sf2QLaELngchst-47">
          <mxGeometry relative="1" as="geometry" />
        </mxCell>
        <mxCell id="Y5Btx3sf2QLaELngchst-46" value="服务构建" style="rounded=1;whiteSpace=wrap;html=1;fillColor=#dae8fc;strokeColor=#6c8ebf;" vertex="1" parent="1">
          <mxGeometry x="321.5" y="1176" width="120" height="60" as="geometry" />
        </mxCell>
        <mxCell id="Y5Btx3sf2QLaELngchst-47" value="完成整改" style="rounded=1;whiteSpace=wrap;html=1;fillColor=#d5e8d4;strokeColor=#82b366;" vertex="1" parent="1">
          <mxGeometry x="321.5" y="1280" width="120" height="60" as="geometry" />
        </mxCell>
        <mxCell id="Y5Btx3sf2QLaELngchst-52" value="No" style="text;html=1;strokeColor=none;fillColor=none;align=center;verticalAlign=middle;whiteSpace=wrap;rounded=0;" vertex="1" parent="1">
          <mxGeometry x="557" y="883" width="60" height="30" as="geometry" />
        </mxCell>
      </root>
    </mxGraphModel>
  </diagram>
</mxfile>
